<?xml version="1.0" encoding="UTF-8"?>
<svg xmlns="http://www.w3.org/2000/svg" viewBox="0 0 32.03 32">
  <defs>
    <style>
      .cls-1 {
        fill: #fff;
      }

      .cls-2 {
        opacity: .58;
      }

      .cls-3 {
        fill: #231f20;
      }
    </style>
  </defs>
  <g id="Layer_2" data-name="Layer 2">
    <g class="cls-2">
      <path class="cls-1" d="m16.01,32c8.37,0,16.39-7.36,16-16C31.63,7.33,24.98,0,16.01,0,7.64,0-.37,7.36.01,16s7.03,16,16,16h0Z"/>
    </g>
  </g>
  <g id="Layer_1" data-name="Layer 1">
    <g>
      <line class="cls-3" x1="16.01" y1="2.15" x2="16.02" y2="29.49"/>
      <path class="cls-3" d="m17.51,2.15c-.51,9.1-.32,18.22,0,27.33,0,0-3,0-3,0,.32-9.11.51-18.23,0-27.33,0,0,3,0,3,0h0Z"/>
    </g>
    <path class="cls-3" d="m3.69,9.29c8.1.56,16.23.58,24.33,0,0,0,0,3,0,3-8.1-.58-16.23-.56-24.33,0,0,0,0-3,0-3h0Z"/>
  </g>
</svg>